<mxfile host="app.diagrams.net" agent="Mozilla/5.0 (X11; Linux x86_64) AppleWebKit/537.36 (KHTML, like Gecko) Chrome/129.0.0.0 Safari/537.36" version="24.8.3">
  <diagram name="第 1 页" id="ZV6fUSykykvNh7Q8yYdN">
    <mxGraphModel dx="1364" dy="793" grid="1" gridSize="10" guides="1" tooltips="1" connect="1" arrows="1" fold="1" page="1" pageScale="1" pageWidth="827" pageHeight="1169" math="0" shadow="0">
      <root>
        <mxCell id="0" />
        <mxCell id="1" parent="0" />
        <mxCell id="gjJgRCgS9KbpXRDzj46r-1" style="edgeStyle=orthogonalEdgeStyle;rounded=0;orthogonalLoop=1;jettySize=auto;html=1;exitX=1;exitY=0.5;exitDx=0;exitDy=0;" edge="1" parent="1" source="A6XkKbkgoFJk8oT6EAiX-3" target="A6XkKbkgoFJk8oT6EAiX-16">
          <mxGeometry relative="1" as="geometry" />
        </mxCell>
        <mxCell id="gjJgRCgS9KbpXRDzj46r-5" style="edgeStyle=orthogonalEdgeStyle;rounded=0;orthogonalLoop=1;jettySize=auto;html=1;exitX=0.25;exitY=1;exitDx=0;exitDy=0;" edge="1" parent="1" source="A6XkKbkgoFJk8oT6EAiX-3">
          <mxGeometry relative="1" as="geometry">
            <mxPoint x="100" y="820" as="targetPoint" />
          </mxGeometry>
        </mxCell>
        <mxCell id="A6XkKbkgoFJk8oT6EAiX-3" value="countdown_4[31:0]" style="rounded=0;whiteSpace=wrap;html=1;" parent="1" vertex="1">
          <mxGeometry x="130" y="160" width="110" height="60" as="geometry" />
        </mxCell>
        <mxCell id="A6XkKbkgoFJk8oT6EAiX-12" value="" style="endArrow=none;dashed=1;html=1;rounded=0;" parent="1" source="A6XkKbkgoFJk8oT6EAiX-14" edge="1">
          <mxGeometry width="50" height="50" relative="1" as="geometry">
            <mxPoint x="180" y="380" as="sourcePoint" />
            <mxPoint x="183" y="60" as="targetPoint" />
            <Array as="points">
              <mxPoint x="183" y="140" />
            </Array>
          </mxGeometry>
        </mxCell>
        <mxCell id="A6XkKbkgoFJk8oT6EAiX-15" value="" style="endArrow=none;dashed=1;html=1;rounded=0;" parent="1" target="A6XkKbkgoFJk8oT6EAiX-14" edge="1">
          <mxGeometry width="50" height="50" relative="1" as="geometry">
            <mxPoint x="183" y="290" as="sourcePoint" />
            <mxPoint x="180" y="70" as="targetPoint" />
          </mxGeometry>
        </mxCell>
        <mxCell id="A6XkKbkgoFJk8oT6EAiX-14" value="" style="triangle;whiteSpace=wrap;html=1;rotation=-90;" parent="1" vertex="1">
          <mxGeometry x="170" y="195" width="25" height="40" as="geometry" />
        </mxCell>
        <mxCell id="gjJgRCgS9KbpXRDzj46r-2" style="edgeStyle=orthogonalEdgeStyle;rounded=0;orthogonalLoop=1;jettySize=auto;html=1;exitX=1;exitY=0.5;exitDx=0;exitDy=0;" edge="1" parent="1" source="A6XkKbkgoFJk8oT6EAiX-16" target="A6XkKbkgoFJk8oT6EAiX-20">
          <mxGeometry relative="1" as="geometry" />
        </mxCell>
        <mxCell id="gjJgRCgS9KbpXRDzj46r-10" style="edgeStyle=orthogonalEdgeStyle;rounded=0;orthogonalLoop=1;jettySize=auto;html=1;exitX=0;exitY=0.75;exitDx=0;exitDy=0;entryX=0;entryY=0.75;entryDx=0;entryDy=0;entryPerimeter=0;" edge="1" parent="1" source="A6XkKbkgoFJk8oT6EAiX-16" target="gjJgRCgS9KbpXRDzj46r-11">
          <mxGeometry relative="1" as="geometry">
            <mxPoint x="220" y="830" as="targetPoint" />
          </mxGeometry>
        </mxCell>
        <mxCell id="A6XkKbkgoFJk8oT6EAiX-16" value="countdown_3[31:0]" style="rounded=0;whiteSpace=wrap;html=1;" parent="1" vertex="1">
          <mxGeometry x="260" y="160" width="110" height="60" as="geometry" />
        </mxCell>
        <mxCell id="A6XkKbkgoFJk8oT6EAiX-17" value="" style="endArrow=none;dashed=1;html=1;rounded=0;" parent="1" source="A6XkKbkgoFJk8oT6EAiX-19" edge="1">
          <mxGeometry width="50" height="50" relative="1" as="geometry">
            <mxPoint x="310" y="380" as="sourcePoint" />
            <mxPoint x="313" y="60" as="targetPoint" />
            <Array as="points">
              <mxPoint x="313" y="140" />
            </Array>
          </mxGeometry>
        </mxCell>
        <mxCell id="A6XkKbkgoFJk8oT6EAiX-18" value="" style="endArrow=none;dashed=1;html=1;rounded=0;" parent="1" target="A6XkKbkgoFJk8oT6EAiX-19" edge="1">
          <mxGeometry width="50" height="50" relative="1" as="geometry">
            <mxPoint x="313" y="290" as="sourcePoint" />
            <mxPoint x="310" y="70" as="targetPoint" />
          </mxGeometry>
        </mxCell>
        <mxCell id="A6XkKbkgoFJk8oT6EAiX-19" value="" style="triangle;whiteSpace=wrap;html=1;rotation=-90;" parent="1" vertex="1">
          <mxGeometry x="300" y="195" width="25" height="40" as="geometry" />
        </mxCell>
        <mxCell id="gjJgRCgS9KbpXRDzj46r-3" style="edgeStyle=orthogonalEdgeStyle;rounded=0;orthogonalLoop=1;jettySize=auto;html=1;exitX=1;exitY=0.5;exitDx=0;exitDy=0;entryX=0;entryY=0.5;entryDx=0;entryDy=0;" edge="1" parent="1" source="A6XkKbkgoFJk8oT6EAiX-20" target="A6XkKbkgoFJk8oT6EAiX-24">
          <mxGeometry relative="1" as="geometry">
            <mxPoint x="520" y="190" as="targetPoint" />
          </mxGeometry>
        </mxCell>
        <mxCell id="A6XkKbkgoFJk8oT6EAiX-20" value="countdown_2[31:0]" style="rounded=0;whiteSpace=wrap;html=1;" parent="1" vertex="1">
          <mxGeometry x="390" y="160" width="110" height="60" as="geometry" />
        </mxCell>
        <mxCell id="A6XkKbkgoFJk8oT6EAiX-21" value="" style="endArrow=none;dashed=1;html=1;rounded=0;" parent="1" source="A6XkKbkgoFJk8oT6EAiX-23" edge="1">
          <mxGeometry width="50" height="50" relative="1" as="geometry">
            <mxPoint x="440" y="380" as="sourcePoint" />
            <mxPoint x="443" y="60" as="targetPoint" />
            <Array as="points">
              <mxPoint x="443" y="140" />
            </Array>
          </mxGeometry>
        </mxCell>
        <mxCell id="A6XkKbkgoFJk8oT6EAiX-22" value="" style="endArrow=none;dashed=1;html=1;rounded=0;" parent="1" target="A6XkKbkgoFJk8oT6EAiX-23" edge="1">
          <mxGeometry width="50" height="50" relative="1" as="geometry">
            <mxPoint x="443" y="290" as="sourcePoint" />
            <mxPoint x="440" y="70" as="targetPoint" />
          </mxGeometry>
        </mxCell>
        <mxCell id="A6XkKbkgoFJk8oT6EAiX-23" value="" style="triangle;whiteSpace=wrap;html=1;rotation=-90;" parent="1" vertex="1">
          <mxGeometry x="430" y="195" width="25" height="40" as="geometry" />
        </mxCell>
        <mxCell id="gjJgRCgS9KbpXRDzj46r-4" style="edgeStyle=orthogonalEdgeStyle;rounded=0;orthogonalLoop=1;jettySize=auto;html=1;exitX=1;exitY=0.5;exitDx=0;exitDy=0;entryX=0;entryY=0.5;entryDx=0;entryDy=0;" edge="1" parent="1" source="A6XkKbkgoFJk8oT6EAiX-24" target="A6XkKbkgoFJk8oT6EAiX-28">
          <mxGeometry relative="1" as="geometry" />
        </mxCell>
        <mxCell id="A6XkKbkgoFJk8oT6EAiX-24" value="countdown_1[31:0]" style="rounded=0;whiteSpace=wrap;html=1;" parent="1" vertex="1">
          <mxGeometry x="530" y="160" width="110" height="60" as="geometry" />
        </mxCell>
        <mxCell id="A6XkKbkgoFJk8oT6EAiX-25" value="" style="endArrow=none;dashed=1;html=1;rounded=0;" parent="1" source="A6XkKbkgoFJk8oT6EAiX-27" edge="1">
          <mxGeometry width="50" height="50" relative="1" as="geometry">
            <mxPoint x="580" y="380" as="sourcePoint" />
            <mxPoint x="583" y="60" as="targetPoint" />
            <Array as="points">
              <mxPoint x="583" y="140" />
            </Array>
          </mxGeometry>
        </mxCell>
        <mxCell id="A6XkKbkgoFJk8oT6EAiX-26" value="" style="endArrow=none;dashed=1;html=1;rounded=0;" parent="1" target="A6XkKbkgoFJk8oT6EAiX-27" edge="1">
          <mxGeometry width="50" height="50" relative="1" as="geometry">
            <mxPoint x="583" y="290" as="sourcePoint" />
            <mxPoint x="580" y="70" as="targetPoint" />
          </mxGeometry>
        </mxCell>
        <mxCell id="A6XkKbkgoFJk8oT6EAiX-27" value="" style="triangle;whiteSpace=wrap;html=1;rotation=-90;" parent="1" vertex="1">
          <mxGeometry x="570" y="195" width="25" height="40" as="geometry" />
        </mxCell>
        <mxCell id="A6XkKbkgoFJk8oT6EAiX-28" value="countdown_0[31:0]" style="rounded=0;whiteSpace=wrap;html=1;" parent="1" vertex="1">
          <mxGeometry x="670" y="160" width="110" height="60" as="geometry" />
        </mxCell>
        <mxCell id="A6XkKbkgoFJk8oT6EAiX-29" value="" style="endArrow=none;dashed=1;html=1;rounded=0;" parent="1" source="A6XkKbkgoFJk8oT6EAiX-31" edge="1">
          <mxGeometry width="50" height="50" relative="1" as="geometry">
            <mxPoint x="720" y="380" as="sourcePoint" />
            <mxPoint x="723" y="60" as="targetPoint" />
            <Array as="points">
              <mxPoint x="723" y="140" />
            </Array>
          </mxGeometry>
        </mxCell>
        <mxCell id="A6XkKbkgoFJk8oT6EAiX-30" value="" style="endArrow=none;dashed=1;html=1;rounded=0;" parent="1" target="A6XkKbkgoFJk8oT6EAiX-31" edge="1">
          <mxGeometry width="50" height="50" relative="1" as="geometry">
            <mxPoint x="723" y="290" as="sourcePoint" />
            <mxPoint x="720" y="70" as="targetPoint" />
          </mxGeometry>
        </mxCell>
        <mxCell id="A6XkKbkgoFJk8oT6EAiX-31" value="" style="triangle;whiteSpace=wrap;html=1;rotation=-90;" parent="1" vertex="1">
          <mxGeometry x="710" y="195" width="25" height="40" as="geometry" />
        </mxCell>
        <mxCell id="gjJgRCgS9KbpXRDzj46r-6" style="edgeStyle=orthogonalEdgeStyle;rounded=0;orthogonalLoop=1;jettySize=auto;html=1;exitX=0.75;exitY=1;exitDx=0;exitDy=0;" edge="1" parent="1" source="A6XkKbkgoFJk8oT6EAiX-32" target="gjJgRCgS9KbpXRDzj46r-7">
          <mxGeometry relative="1" as="geometry">
            <mxPoint x="120" y="820" as="targetPoint" />
          </mxGeometry>
        </mxCell>
        <mxCell id="A6XkKbkgoFJk8oT6EAiX-32" value="byp_4[31:0]" style="rounded=0;whiteSpace=wrap;html=1;" parent="1" vertex="1">
          <mxGeometry x="130" y="270" width="110" height="60" as="geometry" />
        </mxCell>
        <mxCell id="A6XkKbkgoFJk8oT6EAiX-33" value="" style="endArrow=none;dashed=1;html=1;rounded=0;" parent="1" source="A6XkKbkgoFJk8oT6EAiX-35" edge="1">
          <mxGeometry width="50" height="50" relative="1" as="geometry">
            <mxPoint x="180" y="490" as="sourcePoint" />
            <mxPoint x="183" y="170" as="targetPoint" />
            <Array as="points">
              <mxPoint x="183" y="250" />
            </Array>
          </mxGeometry>
        </mxCell>
        <mxCell id="A6XkKbkgoFJk8oT6EAiX-34" value="" style="endArrow=none;dashed=1;html=1;rounded=0;" parent="1" target="A6XkKbkgoFJk8oT6EAiX-35" edge="1">
          <mxGeometry width="50" height="50" relative="1" as="geometry">
            <mxPoint x="183" y="400" as="sourcePoint" />
            <mxPoint x="180" y="180" as="targetPoint" />
          </mxGeometry>
        </mxCell>
        <mxCell id="A6XkKbkgoFJk8oT6EAiX-35" value="" style="triangle;whiteSpace=wrap;html=1;rotation=-90;" parent="1" vertex="1">
          <mxGeometry x="170" y="305" width="25" height="40" as="geometry" />
        </mxCell>
        <mxCell id="gjJgRCgS9KbpXRDzj46r-9" style="edgeStyle=orthogonalEdgeStyle;rounded=0;orthogonalLoop=1;jettySize=auto;html=1;exitX=0.25;exitY=1;exitDx=0;exitDy=0;" edge="1" parent="1" source="A6XkKbkgoFJk8oT6EAiX-36">
          <mxGeometry relative="1" as="geometry">
            <mxPoint x="240" y="820" as="targetPoint" />
          </mxGeometry>
        </mxCell>
        <mxCell id="A6XkKbkgoFJk8oT6EAiX-36" value="byp_3[31:0]" style="rounded=0;whiteSpace=wrap;html=1;" parent="1" vertex="1">
          <mxGeometry x="260" y="270" width="110" height="60" as="geometry" />
        </mxCell>
        <mxCell id="A6XkKbkgoFJk8oT6EAiX-37" value="" style="endArrow=none;dashed=1;html=1;rounded=0;" parent="1" source="A6XkKbkgoFJk8oT6EAiX-39" edge="1">
          <mxGeometry width="50" height="50" relative="1" as="geometry">
            <mxPoint x="310" y="490" as="sourcePoint" />
            <mxPoint x="313" y="170" as="targetPoint" />
            <Array as="points">
              <mxPoint x="313" y="250" />
            </Array>
          </mxGeometry>
        </mxCell>
        <mxCell id="A6XkKbkgoFJk8oT6EAiX-38" value="" style="endArrow=none;dashed=1;html=1;rounded=0;" parent="1" target="A6XkKbkgoFJk8oT6EAiX-39" edge="1">
          <mxGeometry width="50" height="50" relative="1" as="geometry">
            <mxPoint x="313" y="400" as="sourcePoint" />
            <mxPoint x="310" y="180" as="targetPoint" />
          </mxGeometry>
        </mxCell>
        <mxCell id="A6XkKbkgoFJk8oT6EAiX-39" value="" style="triangle;whiteSpace=wrap;html=1;rotation=-90;" parent="1" vertex="1">
          <mxGeometry x="300" y="305" width="25" height="40" as="geometry" />
        </mxCell>
        <mxCell id="A6XkKbkgoFJk8oT6EAiX-40" value="byp_2[31:0]" style="rounded=0;whiteSpace=wrap;html=1;" parent="1" vertex="1">
          <mxGeometry x="390" y="270" width="110" height="60" as="geometry" />
        </mxCell>
        <mxCell id="A6XkKbkgoFJk8oT6EAiX-41" value="" style="endArrow=none;dashed=1;html=1;rounded=0;" parent="1" source="A6XkKbkgoFJk8oT6EAiX-43" edge="1">
          <mxGeometry width="50" height="50" relative="1" as="geometry">
            <mxPoint x="440" y="490" as="sourcePoint" />
            <mxPoint x="443" y="170" as="targetPoint" />
            <Array as="points">
              <mxPoint x="443" y="250" />
            </Array>
          </mxGeometry>
        </mxCell>
        <mxCell id="A6XkKbkgoFJk8oT6EAiX-42" value="" style="endArrow=none;dashed=1;html=1;rounded=0;" parent="1" target="A6XkKbkgoFJk8oT6EAiX-43" edge="1">
          <mxGeometry width="50" height="50" relative="1" as="geometry">
            <mxPoint x="443" y="400" as="sourcePoint" />
            <mxPoint x="440" y="180" as="targetPoint" />
          </mxGeometry>
        </mxCell>
        <mxCell id="A6XkKbkgoFJk8oT6EAiX-43" value="" style="triangle;whiteSpace=wrap;html=1;rotation=-90;" parent="1" vertex="1">
          <mxGeometry x="430" y="305" width="25" height="40" as="geometry" />
        </mxCell>
        <mxCell id="gjJgRCgS9KbpXRDzj46r-17" style="edgeStyle=orthogonalEdgeStyle;rounded=0;orthogonalLoop=1;jettySize=auto;html=1;exitX=0;exitY=0.5;exitDx=0;exitDy=0;" edge="1" parent="1" source="A6XkKbkgoFJk8oT6EAiX-44" target="gjJgRCgS9KbpXRDzj46r-13">
          <mxGeometry relative="1" as="geometry" />
        </mxCell>
        <mxCell id="A6XkKbkgoFJk8oT6EAiX-44" value="byp_1[31:0]" style="rounded=0;whiteSpace=wrap;html=1;" parent="1" vertex="1">
          <mxGeometry x="530" y="270" width="110" height="60" as="geometry" />
        </mxCell>
        <mxCell id="A6XkKbkgoFJk8oT6EAiX-45" value="" style="endArrow=none;dashed=1;html=1;rounded=0;" parent="1" source="A6XkKbkgoFJk8oT6EAiX-47" edge="1">
          <mxGeometry width="50" height="50" relative="1" as="geometry">
            <mxPoint x="580" y="490" as="sourcePoint" />
            <mxPoint x="583" y="170" as="targetPoint" />
            <Array as="points">
              <mxPoint x="583" y="250" />
            </Array>
          </mxGeometry>
        </mxCell>
        <mxCell id="A6XkKbkgoFJk8oT6EAiX-46" value="" style="endArrow=none;dashed=1;html=1;rounded=0;" parent="1" target="A6XkKbkgoFJk8oT6EAiX-47" edge="1">
          <mxGeometry width="50" height="50" relative="1" as="geometry">
            <mxPoint x="583" y="400" as="sourcePoint" />
            <mxPoint x="580" y="180" as="targetPoint" />
          </mxGeometry>
        </mxCell>
        <mxCell id="A6XkKbkgoFJk8oT6EAiX-47" value="" style="triangle;whiteSpace=wrap;html=1;rotation=-90;" parent="1" vertex="1">
          <mxGeometry x="570" y="305" width="25" height="40" as="geometry" />
        </mxCell>
        <mxCell id="A6XkKbkgoFJk8oT6EAiX-48" value="byp_0[31:0]" style="rounded=0;whiteSpace=wrap;html=1;" parent="1" vertex="1">
          <mxGeometry x="670" y="270" width="110" height="60" as="geometry" />
        </mxCell>
        <mxCell id="A6XkKbkgoFJk8oT6EAiX-49" value="" style="endArrow=none;dashed=1;html=1;rounded=0;" parent="1" source="A6XkKbkgoFJk8oT6EAiX-51" edge="1">
          <mxGeometry width="50" height="50" relative="1" as="geometry">
            <mxPoint x="720" y="490" as="sourcePoint" />
            <mxPoint x="723" y="170" as="targetPoint" />
            <Array as="points">
              <mxPoint x="723" y="250" />
            </Array>
          </mxGeometry>
        </mxCell>
        <mxCell id="A6XkKbkgoFJk8oT6EAiX-50" value="" style="endArrow=none;dashed=1;html=1;rounded=0;" parent="1" target="A6XkKbkgoFJk8oT6EAiX-51" edge="1">
          <mxGeometry width="50" height="50" relative="1" as="geometry">
            <mxPoint x="723" y="400" as="sourcePoint" />
            <mxPoint x="720" y="180" as="targetPoint" />
          </mxGeometry>
        </mxCell>
        <mxCell id="A6XkKbkgoFJk8oT6EAiX-51" value="" style="triangle;whiteSpace=wrap;html=1;rotation=-90;" parent="1" vertex="1">
          <mxGeometry x="710" y="305" width="25" height="40" as="geometry" />
        </mxCell>
        <mxCell id="A6XkKbkgoFJk8oT6EAiX-62" style="edgeStyle=orthogonalEdgeStyle;rounded=0;orthogonalLoop=1;jettySize=auto;html=1;exitX=0;exitY=0.5;exitDx=0;exitDy=0;entryX=0;entryY=0.5;entryDx=0;entryDy=0;" parent="1" source="A6XkKbkgoFJk8oT6EAiX-54" target="A6XkKbkgoFJk8oT6EAiX-3" edge="1">
          <mxGeometry relative="1" as="geometry">
            <mxPoint x="70" y="80" as="targetPoint" />
            <Array as="points">
              <mxPoint x="71" y="490" />
              <mxPoint x="71" y="190" />
            </Array>
          </mxGeometry>
        </mxCell>
        <mxCell id="A6XkKbkgoFJk8oT6EAiX-54" value="if ALU or brj" style="rounded=1;whiteSpace=wrap;html=1;" parent="1" vertex="1">
          <mxGeometry x="385" y="460" width="120" height="60" as="geometry" />
        </mxCell>
        <mxCell id="A6XkKbkgoFJk8oT6EAiX-57" value="" style="endArrow=classic;html=1;rounded=0;exitX=0.5;exitY=0;exitDx=0;exitDy=0;" parent="1" source="A6XkKbkgoFJk8oT6EAiX-54" edge="1">
          <mxGeometry width="50" height="50" relative="1" as="geometry">
            <mxPoint x="390" y="430" as="sourcePoint" />
            <mxPoint x="180" y="340" as="targetPoint" />
          </mxGeometry>
        </mxCell>
        <mxCell id="A6XkKbkgoFJk8oT6EAiX-58" value="" style="endArrow=classic;html=1;rounded=0;" parent="1" edge="1">
          <mxGeometry width="50" height="50" relative="1" as="geometry">
            <mxPoint x="440" y="460" as="sourcePoint" />
            <mxPoint x="310" y="340" as="targetPoint" />
          </mxGeometry>
        </mxCell>
        <mxCell id="A6XkKbkgoFJk8oT6EAiX-59" value="" style="endArrow=classic;html=1;rounded=0;" parent="1" edge="1">
          <mxGeometry width="50" height="50" relative="1" as="geometry">
            <mxPoint x="440" y="460" as="sourcePoint" />
            <mxPoint x="450" y="340" as="targetPoint" />
          </mxGeometry>
        </mxCell>
        <mxCell id="A6XkKbkgoFJk8oT6EAiX-60" value="" style="endArrow=classic;html=1;rounded=0;exitX=0.5;exitY=0;exitDx=0;exitDy=0;entryX=0;entryY=0.5;entryDx=0;entryDy=0;" parent="1" source="A6XkKbkgoFJk8oT6EAiX-54" target="A6XkKbkgoFJk8oT6EAiX-47" edge="1">
          <mxGeometry width="50" height="50" relative="1" as="geometry">
            <mxPoint x="755" y="450" as="sourcePoint" />
            <mxPoint x="580" y="380" as="targetPoint" />
          </mxGeometry>
        </mxCell>
        <mxCell id="A6XkKbkgoFJk8oT6EAiX-61" value="" style="endArrow=classic;html=1;rounded=0;exitX=0.5;exitY=0;exitDx=0;exitDy=0;" parent="1" edge="1">
          <mxGeometry width="50" height="50" relative="1" as="geometry">
            <mxPoint x="440" y="460" as="sourcePoint" />
            <mxPoint x="720" y="340" as="targetPoint" />
          </mxGeometry>
        </mxCell>
        <mxCell id="A6XkKbkgoFJk8oT6EAiX-63" style="edgeStyle=orthogonalEdgeStyle;rounded=0;orthogonalLoop=1;jettySize=auto;html=1;exitX=0;exitY=0.5;exitDx=0;exitDy=0;entryX=0;entryY=0.75;entryDx=0;entryDy=0;" parent="1" source="A6XkKbkgoFJk8oT6EAiX-64" target="A6XkKbkgoFJk8oT6EAiX-3" edge="1">
          <mxGeometry relative="1" as="geometry">
            <mxPoint x="100" y="210" as="targetPoint" />
            <Array as="points">
              <mxPoint x="40" y="620" />
              <mxPoint x="40" y="205" />
            </Array>
          </mxGeometry>
        </mxCell>
        <mxCell id="A6XkKbkgoFJk8oT6EAiX-64" value="if LW or SW" style="rounded=1;whiteSpace=wrap;html=1;" parent="1" vertex="1">
          <mxGeometry x="384" y="590" width="120" height="60" as="geometry" />
        </mxCell>
        <mxCell id="A6XkKbkgoFJk8oT6EAiX-66" value="" style="endArrow=classic;html=1;rounded=0;" parent="1" edge="1">
          <mxGeometry width="50" height="50" relative="1" as="geometry">
            <mxPoint x="439" y="590" as="sourcePoint" />
            <mxPoint x="310" y="340" as="targetPoint" />
          </mxGeometry>
        </mxCell>
        <mxCell id="A6XkKbkgoFJk8oT6EAiX-67" value="" style="endArrow=classic;html=1;rounded=0;" parent="1" edge="1">
          <mxGeometry width="50" height="50" relative="1" as="geometry">
            <mxPoint x="439" y="590" as="sourcePoint" />
            <mxPoint x="440" y="340" as="targetPoint" />
          </mxGeometry>
        </mxCell>
        <mxCell id="A6XkKbkgoFJk8oT6EAiX-68" value="" style="endArrow=classic;html=1;rounded=0;exitX=0.5;exitY=0;exitDx=0;exitDy=0;" parent="1" source="A6XkKbkgoFJk8oT6EAiX-64" edge="1">
          <mxGeometry width="50" height="50" relative="1" as="geometry">
            <mxPoint x="754" y="580" as="sourcePoint" />
            <mxPoint x="580" y="340" as="targetPoint" />
          </mxGeometry>
        </mxCell>
        <mxCell id="A6XkKbkgoFJk8oT6EAiX-69" value="" style="endArrow=classic;html=1;rounded=0;exitX=0.5;exitY=0;exitDx=0;exitDy=0;" parent="1" edge="1">
          <mxGeometry width="50" height="50" relative="1" as="geometry">
            <mxPoint x="439" y="590" as="sourcePoint" />
            <mxPoint x="720" y="340" as="targetPoint" />
          </mxGeometry>
        </mxCell>
        <mxCell id="A6XkKbkgoFJk8oT6EAiX-72" style="edgeStyle=orthogonalEdgeStyle;rounded=0;orthogonalLoop=1;jettySize=auto;html=1;exitX=0;exitY=0.5;exitDx=0;exitDy=0;entryX=0;entryY=0.25;entryDx=0;entryDy=0;" parent="1" target="A6XkKbkgoFJk8oT6EAiX-3" edge="1">
          <mxGeometry relative="1" as="geometry">
            <mxPoint x="30" y="170" as="targetPoint" />
            <mxPoint x="395" y="730" as="sourcePoint" />
            <Array as="points">
              <mxPoint x="31" y="730" />
              <mxPoint x="31" y="175" />
            </Array>
          </mxGeometry>
        </mxCell>
        <mxCell id="A6XkKbkgoFJk8oT6EAiX-73" style="edgeStyle=orthogonalEdgeStyle;rounded=0;orthogonalLoop=1;jettySize=auto;html=1;exitX=0.5;exitY=0;exitDx=0;exitDy=0;" parent="1" source="A6XkKbkgoFJk8oT6EAiX-71" edge="1">
          <mxGeometry relative="1" as="geometry">
            <mxPoint x="590" y="350" as="targetPoint" />
          </mxGeometry>
        </mxCell>
        <mxCell id="A6XkKbkgoFJk8oT6EAiX-74" style="edgeStyle=orthogonalEdgeStyle;rounded=0;orthogonalLoop=1;jettySize=auto;html=1;exitX=1;exitY=0.5;exitDx=0;exitDy=0;" parent="1" source="A6XkKbkgoFJk8oT6EAiX-71" edge="1">
          <mxGeometry relative="1" as="geometry">
            <mxPoint x="720" y="340" as="targetPoint" />
          </mxGeometry>
        </mxCell>
        <mxCell id="A6XkKbkgoFJk8oT6EAiX-71" value="if MULDIV" style="rounded=1;whiteSpace=wrap;html=1;" parent="1" vertex="1">
          <mxGeometry x="385" y="700" width="120" height="60" as="geometry" />
        </mxCell>
        <mxCell id="gjJgRCgS9KbpXRDzj46r-21" style="edgeStyle=orthogonalEdgeStyle;rounded=0;orthogonalLoop=1;jettySize=auto;html=1;exitX=1;exitY=0.5;exitDx=0;exitDy=0;exitPerimeter=0;" edge="1" parent="1" source="gjJgRCgS9KbpXRDzj46r-7">
          <mxGeometry relative="1" as="geometry">
            <mxPoint x="110" y="960" as="targetPoint" />
          </mxGeometry>
        </mxCell>
        <mxCell id="gjJgRCgS9KbpXRDzj46r-7" value="" style="shape=or;whiteSpace=wrap;html=1;rotation=90;" vertex="1" parent="1">
          <mxGeometry x="80" y="810" width="60" height="80" as="geometry" />
        </mxCell>
        <mxCell id="gjJgRCgS9KbpXRDzj46r-27" style="edgeStyle=orthogonalEdgeStyle;rounded=0;orthogonalLoop=1;jettySize=auto;html=1;exitX=1;exitY=0.5;exitDx=0;exitDy=0;exitPerimeter=0;" edge="1" parent="1" source="gjJgRCgS9KbpXRDzj46r-11">
          <mxGeometry relative="1" as="geometry">
            <mxPoint x="240" y="960" as="targetPoint" />
          </mxGeometry>
        </mxCell>
        <mxCell id="gjJgRCgS9KbpXRDzj46r-11" value="" style="shape=or;whiteSpace=wrap;html=1;rotation=90;" vertex="1" parent="1">
          <mxGeometry x="210" y="810" width="60" height="80" as="geometry" />
        </mxCell>
        <mxCell id="gjJgRCgS9KbpXRDzj46r-28" style="edgeStyle=orthogonalEdgeStyle;rounded=0;orthogonalLoop=1;jettySize=auto;html=1;exitX=1;exitY=0.5;exitDx=0;exitDy=0;exitPerimeter=0;" edge="1" parent="1" source="gjJgRCgS9KbpXRDzj46r-12">
          <mxGeometry relative="1" as="geometry">
            <mxPoint x="384" y="960" as="targetPoint" />
          </mxGeometry>
        </mxCell>
        <mxCell id="gjJgRCgS9KbpXRDzj46r-12" value="" style="shape=or;whiteSpace=wrap;html=1;rotation=90;" vertex="1" parent="1">
          <mxGeometry x="354" y="810" width="60" height="80" as="geometry" />
        </mxCell>
        <mxCell id="gjJgRCgS9KbpXRDzj46r-29" style="edgeStyle=orthogonalEdgeStyle;rounded=0;orthogonalLoop=1;jettySize=auto;html=1;exitX=1;exitY=0.5;exitDx=0;exitDy=0;exitPerimeter=0;" edge="1" parent="1" source="gjJgRCgS9KbpXRDzj46r-13">
          <mxGeometry relative="1" as="geometry">
            <mxPoint x="520" y="960" as="targetPoint" />
          </mxGeometry>
        </mxCell>
        <mxCell id="gjJgRCgS9KbpXRDzj46r-13" value="" style="shape=or;whiteSpace=wrap;html=1;rotation=90;" vertex="1" parent="1">
          <mxGeometry x="490" y="810" width="60" height="80" as="geometry" />
        </mxCell>
        <mxCell id="gjJgRCgS9KbpXRDzj46r-30" style="edgeStyle=orthogonalEdgeStyle;rounded=0;orthogonalLoop=1;jettySize=auto;html=1;exitX=1;exitY=0.5;exitDx=0;exitDy=0;exitPerimeter=0;" edge="1" parent="1" source="gjJgRCgS9KbpXRDzj46r-14">
          <mxGeometry relative="1" as="geometry">
            <mxPoint x="660" y="960" as="targetPoint" />
          </mxGeometry>
        </mxCell>
        <mxCell id="gjJgRCgS9KbpXRDzj46r-14" value="" style="shape=or;whiteSpace=wrap;html=1;rotation=90;" vertex="1" parent="1">
          <mxGeometry x="630" y="810" width="60" height="80" as="geometry" />
        </mxCell>
        <mxCell id="gjJgRCgS9KbpXRDzj46r-15" style="edgeStyle=orthogonalEdgeStyle;rounded=0;orthogonalLoop=1;jettySize=auto;html=1;exitX=0;exitY=0.75;exitDx=0;exitDy=0;entryX=0;entryY=0.75;entryDx=0;entryDy=0;entryPerimeter=0;" edge="1" parent="1" source="A6XkKbkgoFJk8oT6EAiX-20" target="gjJgRCgS9KbpXRDzj46r-12">
          <mxGeometry relative="1" as="geometry" />
        </mxCell>
        <mxCell id="gjJgRCgS9KbpXRDzj46r-16" style="edgeStyle=orthogonalEdgeStyle;rounded=0;orthogonalLoop=1;jettySize=auto;html=1;exitX=0;exitY=0.5;exitDx=0;exitDy=0;entryX=0;entryY=0.5;entryDx=0;entryDy=0;entryPerimeter=0;" edge="1" parent="1" source="A6XkKbkgoFJk8oT6EAiX-40" target="gjJgRCgS9KbpXRDzj46r-12">
          <mxGeometry relative="1" as="geometry" />
        </mxCell>
        <mxCell id="gjJgRCgS9KbpXRDzj46r-18" style="edgeStyle=orthogonalEdgeStyle;rounded=0;orthogonalLoop=1;jettySize=auto;html=1;exitX=0;exitY=0.75;exitDx=0;exitDy=0;entryX=0;entryY=0.25;entryDx=0;entryDy=0;entryPerimeter=0;" edge="1" parent="1" source="A6XkKbkgoFJk8oT6EAiX-44" target="gjJgRCgS9KbpXRDzj46r-13">
          <mxGeometry relative="1" as="geometry" />
        </mxCell>
        <mxCell id="gjJgRCgS9KbpXRDzj46r-19" style="edgeStyle=orthogonalEdgeStyle;rounded=0;orthogonalLoop=1;jettySize=auto;html=1;exitX=0;exitY=0.5;exitDx=0;exitDy=0;entryX=0.067;entryY=0.863;entryDx=0;entryDy=0;entryPerimeter=0;" edge="1" parent="1" source="A6XkKbkgoFJk8oT6EAiX-48" target="gjJgRCgS9KbpXRDzj46r-14">
          <mxGeometry relative="1" as="geometry" />
        </mxCell>
        <mxCell id="gjJgRCgS9KbpXRDzj46r-20" style="edgeStyle=orthogonalEdgeStyle;rounded=0;orthogonalLoop=1;jettySize=auto;html=1;exitX=0;exitY=0.75;exitDx=0;exitDy=0;entryX=0;entryY=0.5;entryDx=0;entryDy=0;entryPerimeter=0;" edge="1" parent="1" source="A6XkKbkgoFJk8oT6EAiX-48" target="gjJgRCgS9KbpXRDzj46r-14">
          <mxGeometry relative="1" as="geometry" />
        </mxCell>
        <mxCell id="gjJgRCgS9KbpXRDzj46r-22" value="&lt;span style=&quot;color: rgb(0, 0, 0); font-family: Helvetica; font-size: 12px; font-style: normal; font-variant-ligatures: normal; font-variant-caps: normal; font-weight: 400; letter-spacing: normal; orphans: 2; text-align: center; text-indent: 0px; text-transform: none; widows: 2; word-spacing: 0px; -webkit-text-stroke-width: 0px; white-space: normal; background-color: rgb(251, 251, 251); text-decoration-thickness: initial; text-decoration-style: initial; text-decoration-color: initial; display: inline !important; float: none;&quot;&gt;bypass from X0&lt;/span&gt;" style="text;whiteSpace=wrap;html=1;" vertex="1" parent="1">
          <mxGeometry x="80" y="970" width="90" height="40" as="geometry" />
        </mxCell>
        <mxCell id="gjJgRCgS9KbpXRDzj46r-23" value="&lt;span style=&quot;color: rgb(0, 0, 0); font-family: Helvetica; font-size: 12px; font-style: normal; font-variant-ligatures: normal; font-variant-caps: normal; font-weight: 400; letter-spacing: normal; orphans: 2; text-align: center; text-indent: 0px; text-transform: none; widows: 2; word-spacing: 0px; -webkit-text-stroke-width: 0px; white-space: normal; background-color: rgb(251, 251, 251); text-decoration-thickness: initial; text-decoration-style: initial; text-decoration-color: initial; display: inline !important; float: none;&quot;&gt;bypass from X1&lt;/span&gt;" style="text;whiteSpace=wrap;html=1;" vertex="1" parent="1">
          <mxGeometry x="200" y="970" width="90" height="40" as="geometry" />
        </mxCell>
        <mxCell id="gjJgRCgS9KbpXRDzj46r-24" value="&lt;span style=&quot;color: rgb(0, 0, 0); font-family: Helvetica; font-size: 12px; font-style: normal; font-variant-ligatures: normal; font-variant-caps: normal; font-weight: 400; letter-spacing: normal; orphans: 2; text-align: center; text-indent: 0px; text-transform: none; widows: 2; word-spacing: 0px; -webkit-text-stroke-width: 0px; white-space: normal; background-color: rgb(251, 251, 251); text-decoration-thickness: initial; text-decoration-style: initial; text-decoration-color: initial; display: inline !important; float: none;&quot;&gt;bypass from X2&lt;/span&gt;" style="text;whiteSpace=wrap;html=1;" vertex="1" parent="1">
          <mxGeometry x="354" y="970" width="90" height="40" as="geometry" />
        </mxCell>
        <mxCell id="gjJgRCgS9KbpXRDzj46r-25" value="&lt;span style=&quot;color: rgb(0, 0, 0); font-family: Helvetica; font-size: 12px; font-style: normal; font-variant-ligatures: normal; font-variant-caps: normal; font-weight: 400; letter-spacing: normal; orphans: 2; text-align: center; text-indent: 0px; text-transform: none; widows: 2; word-spacing: 0px; -webkit-text-stroke-width: 0px; white-space: normal; background-color: rgb(251, 251, 251); text-decoration-thickness: initial; text-decoration-style: initial; text-decoration-color: initial; display: inline !important; float: none;&quot;&gt;bypass from X3&lt;/span&gt;" style="text;whiteSpace=wrap;html=1;" vertex="1" parent="1">
          <mxGeometry x="500" y="970" width="90" height="40" as="geometry" />
        </mxCell>
        <mxCell id="gjJgRCgS9KbpXRDzj46r-26" value="&lt;span style=&quot;color: rgb(0, 0, 0); font-family: Helvetica; font-size: 12px; font-style: normal; font-variant-ligatures: normal; font-variant-caps: normal; font-weight: 400; letter-spacing: normal; orphans: 2; text-align: center; text-indent: 0px; text-transform: none; widows: 2; word-spacing: 0px; -webkit-text-stroke-width: 0px; white-space: normal; background-color: rgb(251, 251, 251); text-decoration-thickness: initial; text-decoration-style: initial; text-decoration-color: initial; display: inline !important; float: none;&quot;&gt;bypass from W&lt;/span&gt;" style="text;whiteSpace=wrap;html=1;" vertex="1" parent="1">
          <mxGeometry x="630" y="970" width="90" height="40" as="geometry" />
        </mxCell>
      </root>
    </mxGraphModel>
  </diagram>
</mxfile>
